<?xml version="1.0" encoding="iso-8859-1"?>
<!-- Generator: Adobe Illustrator 19.0.0, SVG Export Plug-In . SVG Version: 6.00 Build 0)  -->
<svg version="1.1" id="Layer_1" xmlns="http://www.w3.org/2000/svg" xmlns:xlink="http://www.w3.org/1999/xlink" x="0px" y="0px"
	 viewBox="0 0 512 512"  style="fill:white" xml:space="preserve">
<path style="fill:#395B73;" d="M315.858,427.023c-0.241,0-0.481,0-0.721-0.001c-37.495-0.136-67.688-30.881-67.688-68.376V204.693
	h128.267v-76.96H247.449V8.017h-85.511c-1.329,11.562-7.479,52.701-42.756,85.511c-26.462,24.612-55.66,31.841-68.409,34.205v76.96
	h76.96v179.574c0,66.117,66.069,119.716,132.187,119.716c59.145,0,94.063-17.458,116.865-34.205v-52.391
	C357.6,423.634,337.127,427.023,315.858,427.023z"/>
<path style="fill:#304D61;" d="M293.055,486.881c-66.117,0-132.187-53.599-132.187-119.716V179.04h-76.96v-61.877
	c-13.923,6.444-26.063,9.26-33.136,10.57v76.96h76.96v179.574c0,66.117,66.069,119.716,132.187,119.716
	c54.143,0,87.975-14.631,110.805-29.951C350.827,481.584,325.619,486.881,293.055,486.881z"/>
<circle style="fill:#395B73;" cx="435.574" cy="427.023" r="25.653"/>
<path style="fill:#304D61;" d="M444.125,435.574c-14.168,0-25.653-11.485-25.653-25.653c0-0.705,0.036-1.402,0.092-2.094
	c-5.3,4.7-8.643,11.556-8.643,19.196c0,14.168,11.485,25.653,25.653,25.653c13.463,0,24.495-10.373,25.562-23.56
	C456.608,433.132,450.653,435.574,444.125,435.574z"/>
<path d="M381.496,410.901c-2.077-1.509-4.751-1.93-7.193-1.136c-18.836,6.132-38.499,9.242-58.445,9.242l-0.692-0.001
	c-32.92-0.119-59.701-27.196-59.701-60.359v-67.907c0-4.427-3.589-8.017-8.017-8.017s-8.017,3.589-8.017,8.017v67.907
	c0,41.972,33.948,76.242,75.687,76.393l0.739,0.001c17.956,0,35.706-2.325,52.91-6.92v37.548
	c-19.461,13.658-51.537,30.299-108.849,30.299c-58.614,0-124.17-47.769-124.17-111.699V204.693c0-4.427-3.589-8.017-8.017-8.017
	H58.789v-62.433c18.608-4.335,43.32-13.888,65.852-34.846c3.242-3.015,3.426-8.087,0.41-11.33c-3.015-3.242-8.088-3.426-11.33-0.41
	c-22.475,20.903-47.432,29.044-64.41,32.192c-3.799,0.707-6.556,4.02-6.556,7.884v76.96c0,4.427,3.589,8.017,8.017,8.017h68.944
	v171.557c0,33.654,15.64,65.861,44.039,90.688C190.686,498.498,225.736,512,259.92,512c49.064,0,88.844-11.697,121.611-35.76
	c2.057-1.51,3.272-3.91,3.272-6.461v-52.391C384.802,414.822,383.572,412.41,381.496,410.901z"/>
<path d="M137.913,72.328c3.777,2.314,8.711,1.127,11.024-2.649c9.855-16.088,16.83-34.897,19.963-53.646h70.533v111.699
	c0,4.427,3.589,8.017,8.017,8.017h120.251v60.927H247.449c-4.427,0-8.017,3.589-8.017,8.017V256c0,4.427,3.589,8.017,8.017,8.017
	s8.017-3.589,8.017-8.017v-43.29h120.251c4.427,0,8.017-3.589,8.017-8.017v-76.96c0-4.427-3.589-8.017-8.017-8.017H255.466V8.017
	c0-4.427-3.589-8.017-8.017-8.017h-85.511c-4.074,0-7.499,3.055-7.964,7.102c-1.248,10.877-5.341,32.381-18.708,54.201
	C132.952,65.08,134.138,70.015,137.913,72.328z"/>
<path d="M435.574,393.353c-18.566,0-33.67,15.105-33.67,33.67c0,18.566,15.105,33.67,33.67,33.67c18.566,0,33.67-15.105,33.67-33.67
	C469.244,408.457,454.14,393.353,435.574,393.353z M435.574,444.66c-9.725,0-17.637-7.912-17.637-17.637s7.912-17.637,17.637-17.637
	s17.637,7.912,17.637,17.637S445.299,444.66,435.574,444.66z"/>
<g>
</g>
<g>
</g>
<g>
</g>
<g>
</g>
<g>
</g>
<g>
</g>
<g>
</g>
<g>
</g>
<g>
</g>
<g>
</g>
<g>
</g>
<g>
</g>
<g>
</g>
<g>
</g>
<g>
</g>
</svg>
